<?xml version="1.0" encoding="UTF-8"?>
<svg xmlns="http://www.w3.org/2000/svg" xmlns:xlink="http://www.w3.org/1999/xlink" viewBox="0 0 48 48" width="48px" height="48px">
<g id="surface29665592">
<path style=" stroke:none;fill-rule:nonzero;fill:rgb(80.000001%,80.000001%,80.000001%);fill-opacity:1;" d="M 24 4 C 12.941406 4 4 12.941406 4 24 C 4 35.058594 12.941406 44 24 44 C 35.058594 44 44 35.058594 44 24 C 44 12.941406 35.058594 4 24 4 Z M 33.414062 30.585938 C 34.195312 31.367188 34.195312 32.632812 33.414062 33.414062 C 33.023438 33.804688 32.511719 34 32 34 C 31.488281 34 30.976562 33.804688 30.585938 33.414062 L 24 26.828125 L 17.414062 33.414062 C 17.023438 33.804688 16.511719 34 16 34 C 15.488281 34 14.976562 33.804688 14.585938 33.414062 C 13.804688 32.632812 13.804688 31.367188 14.585938 30.585938 L 21.171875 24 L 14.585938 17.414062 C 13.804688 16.632812 13.804688 15.367188 14.585938 14.585938 C 15.367188 13.804688 16.632812 13.804688 17.414062 14.585938 L 24 21.171875 L 30.585938 14.585938 C 31.367188 13.804688 32.632812 13.804688 33.414062 14.585938 C 34.195312 15.367188 34.195312 16.632812 33.414062 17.414062 L 26.828125 24 Z M 33.414062 30.585938 "/>
</g>
</svg>
