<?xml version="1.0" encoding="UTF-8"?>
<svg xmlns="http://www.w3.org/2000/svg" xmlns:xlink="http://www.w3.org/1999/xlink" viewBox="0 0 24 24" width="24px" height="24px">
<g id="surface29712426">
<path style=" stroke:none;fill-rule:nonzero;fill:rgb(100%,100%,100%);fill-opacity:1;" d="M 12 2 C 6.46875 2 2 6.46875 2 12 C 2 17.53125 6.46875 22 12 22 C 17.53125 22 22 17.53125 22 12 C 22 6.46875 17.53125 2 12 2 Z M 16.707031 15.292969 C 17.097656 15.683594 17.097656 16.316406 16.707031 16.707031 C 16.511719 16.902344 16.257812 17 16 17 C 15.742188 17 15.488281 16.902344 15.292969 16.707031 L 12 13.414062 L 8.707031 16.707031 C 8.511719 16.902344 8.257812 17 8 17 C 7.742188 17 7.488281 16.902344 7.292969 16.707031 C 6.902344 16.316406 6.902344 15.683594 7.292969 15.292969 L 10.585938 12 L 7.292969 8.707031 C 6.902344 8.316406 6.902344 7.683594 7.292969 7.292969 C 7.683594 6.902344 8.316406 6.902344 8.707031 7.292969 L 12 10.585938 L 15.292969 7.292969 C 15.683594 6.902344 16.316406 6.902344 16.707031 7.292969 C 17.097656 7.683594 17.097656 8.316406 16.707031 8.707031 L 13.414062 12 Z M 16.707031 15.292969 "/>
</g>
</svg>
